<?xml version="1.0" encoding="utf-8"?>
<!-- Generator: Adobe Illustrator 19.1.0, SVG Export Plug-In . SVG Version: 6.00 Build 0)  -->
<svg version="1.1" id="Layer_1" xmlns="http://www.w3.org/2000/svg" xmlns:xlink="http://www.w3.org/1999/xlink" x="0px" y="0px"
	 viewBox="-180.6 561.2 338.3 83.7" style="enable-background:new -180.6 561.2 338.3 83.7;" xml:space="preserve">
<style type="text/css">
	.st0{enable-background:new    ;}
	.st1{fill:#FFFFFF;}
</style>
<g>
	<g class="st0">
		<path class="st1" d="M-177.3,599.3v-31.3h2v31.3H-177.3z"/>
		<path class="st1" d="M-165,599.3h-2v-31.3h1.9l9.1,16.4l5.7,10.4h0.1v-26.8h2v31.3h-2c-1.5-2.8-3-5.5-4.5-8.2
			c-1.5-2.7-3-5.5-4.5-8.3c-1-1.7-1.9-3.4-2.8-5.1c-0.9-1.7-1.9-3.5-2.8-5.2h0V599.3z"/>
		<path class="st1" d="M-133.4,569.9v29.5h-2v-29.5h-7.7v-1.8h17.3v1.8H-133.4z"/>
		<path class="st1" d="M-120.5,599.3v-31.3h15.9v1.9h-13.9v12.5h12v1.8h-12v13.1h13.9v1.9H-120.5z"/>
		<path class="st1" d="M-89.6,568.1c2.8,0,4.9,0.7,6.3,2.2s2.1,3.5,2.1,6c0,2.2-0.5,4-1.5,5.4c-1,1.5-2.6,2.4-4.6,2.9
			c1,2.4,2.1,4.8,3.1,7.3c1.1,2.5,2.1,5,3.2,7.3h-2.3c-1-2.4-2-4.8-3-7.2c-1-2.4-2-4.8-3-7.2c-0.4,0-0.8,0-1.3,0s-0.9,0-1.3,0h-4.6
			v14.4h-2v-31.3H-89.6z M-96.7,569.9v13.3h6.6c2.2,0,3.8-0.6,5-1.7s1.8-2.8,1.8-5.1c0-2.2-0.6-3.8-1.8-4.8c-1.2-1.1-2.8-1.6-5-1.6
			H-96.7z"/>
		<path class="st1" d="M-57.2,577c0,1.2-0.2,2.3-0.5,3.4s-0.8,2-1.5,2.9c-0.7,0.8-1.6,1.5-2.7,2c-1.1,0.5-2.4,0.7-4,0.7h-6.8v13.3
			h-2v-31.3h8.6c2.8,0,5,0.7,6.5,2.2S-57.2,574-57.2,577z M-59.2,577c0-2.3-0.6-4-1.7-5.2s-2.9-1.8-5.2-1.8h-6.5v14.2h6.6
			c1.3,0,2.3-0.2,3.2-0.5c0.9-0.4,1.6-0.9,2.1-1.5c0.5-0.6,0.9-1.4,1.2-2.3C-59.3,578.9-59.2,578-59.2,577z"/>
		<path class="st1" d="M-42.5,568.1c2.8,0,4.9,0.7,6.3,2.2s2.1,3.5,2.1,6c0,2.2-0.5,4-1.5,5.4c-1,1.5-2.6,2.4-4.6,2.9
			c1,2.4,2.1,4.8,3.1,7.3c1.1,2.5,2.1,5,3.2,7.3h-2.3c-1-2.4-2-4.8-3-7.2c-1-2.4-2-4.8-3-7.2c-0.4,0-0.8,0-1.3,0s-0.9,0-1.3,0h-4.6
			v14.4h-2v-31.3H-42.5z M-49.5,569.9v13.3h6.6c2.2,0,3.8-0.6,5-1.7s1.8-2.8,1.8-5.1c0-2.2-0.6-3.8-1.8-4.8c-1.2-1.1-2.8-1.6-5-1.6
			H-49.5z"/>
		<path class="st1" d="M-27.5,599.3v-31.3h15.9v1.9h-13.9v12.5h12v1.8h-12v13.1h13.9v1.9H-27.5z"/>
		<path class="st1" d="M1.4,569.9v29.5h-2v-29.5h-7.7v-1.8H9v1.8H1.4z"/>
		<path class="st1" d="M14.3,599.3v-31.3h15.9v1.9H16.3v12.5h12v1.8h-12v13.1h13.9v1.9H14.3z"/>
		<path class="st1" d="M45.1,568.1c2.8,0,4.9,0.7,6.3,2.2s2.1,3.5,2.1,6c0,2.2-0.5,4-1.5,5.4c-1,1.5-2.6,2.4-4.6,2.9
			c1,2.4,2.1,4.8,3.1,7.3c1.1,2.5,2.1,5,3.2,7.3h-2.3c-1-2.4-2-4.8-3-7.2c-1-2.4-2-4.8-3-7.2c-0.4,0-0.8,0-1.3,0c-0.4,0-0.9,0-1.3,0
			h-4.6v14.4h-2v-31.3H45.1z M38.1,569.9v13.3h6.6c2.2,0,3.8-0.6,5-1.7c1.2-1.1,1.8-2.8,1.8-5.1c0-2.2-0.6-3.8-1.8-4.8
			c-1.2-1.1-2.8-1.6-5-1.6H38.1z"/>
		<path class="st1" d="M71,599.3v-31.3h15.9v1.9H72.9v12.5h12v1.8h-12v13.1h13.9v1.9H71z"/>
		<path class="st1" d="M106.2,599.3l-6.9-14l-6.9,14h-2.2l8-16l-7.6-15.2h2.2l6.5,13.3l6.5-13.3h2.2l-7.6,15.2l8.1,16H106.2z"/>
		<path class="st1" d="M131.2,577c0,1.2-0.2,2.3-0.5,3.4s-0.8,2-1.5,2.9c-0.7,0.8-1.6,1.5-2.7,2c-1.1,0.5-2.4,0.7-4,0.7h-6.8v13.3
			h-2v-31.3h8.6c2.8,0,5,0.7,6.5,2.2C130.4,571.8,131.2,574,131.2,577z M129.2,577c0-2.3-0.6-4-1.7-5.2s-2.9-1.8-5.2-1.8h-6.5v14.2
			h6.6c1.3,0,2.3-0.2,3.2-0.5c0.9-0.4,1.6-0.9,2.1-1.5c0.5-0.6,0.9-1.4,1.2-2.3C129.1,578.9,129.2,578,129.2,577z"/>
		<path class="st1" d="M153.7,590.7c0,1.3-0.2,2.5-0.6,3.6c-0.4,1.1-1,2-1.8,2.9s-1.7,1.4-2.8,1.9c-1.1,0.4-2.3,0.7-3.6,0.7
			c-1.4,0-2.7-0.2-3.8-0.7c-1.1-0.5-2-1.1-2.8-1.9c-0.8-0.8-1.3-1.8-1.7-2.9s-0.6-2.3-0.6-3.7v-13.9c0-1.2,0.2-2.3,0.6-3.4
			s1-2,1.7-2.8c0.8-0.8,1.7-1.4,2.8-1.9c1.1-0.5,2.4-0.7,3.8-0.7c1.3,0,2.6,0.2,3.6,0.7c1.1,0.4,2,1,2.8,1.8
			c0.8,0.8,1.4,1.7,1.8,2.8c0.4,1.1,0.6,2.2,0.6,3.5V590.7z M151.7,576.7c0-0.9-0.2-1.8-0.5-2.6c-0.3-0.8-0.7-1.6-1.3-2.2
			s-1.3-1.2-2.1-1.5c-0.8-0.4-1.8-0.6-2.9-0.6c-1.1,0-2.1,0.2-3,0.6c-0.9,0.4-1.6,0.9-2.2,1.5s-1,1.4-1.3,2.2
			c-0.3,0.8-0.5,1.7-0.5,2.7v13.9c0,2.1,0.6,3.9,1.8,5.2c1.2,1.3,2.9,2,5.1,2c1,0,1.9-0.2,2.8-0.6c0.8-0.4,1.5-0.9,2.1-1.5
			c0.6-0.6,1.1-1.4,1.4-2.2c0.3-0.9,0.5-1.8,0.5-2.7V576.7z"/>
	</g>
	<g class="st0">
		<path class="st1" d="M-144.2,641.3l0.8-1.2c0.9,0.6,1.8,1,2.6,1c0.8,0,1.2-0.3,1.2-0.9c0-0.6-0.8-0.8-1.6-1.1c0,0-0.1,0-0.1,0
			c-1.2-0.3-2.5-0.8-2.5-2.4c0-1.5,1.2-2.4,2.8-2.4c1,0,2.1,0.3,2.9,0.9l-0.7,1.3c-0.8-0.5-1.6-0.8-2.2-0.8c-0.7,0-1.1,0.3-1.1,0.8
			c0,0.5,0.8,0.8,1.6,1.1c0,0,0.1,0,0.2,0c1.2,0.4,2.5,0.9,2.5,2.3c0,1.7-1.3,2.5-2.9,2.5C-142,642.5-143.2,642.1-144.2,641.3z"/>
		<path class="st1" d="M-135.8,640.2V636h-1v-1.6h1v-2.2h1.8v2.2h2.1v1.6h-2.1v3.9c0,0.7,0.4,1,1,1c0.4,0,0.8-0.1,1.1-0.3v1.5
			c-0.5,0.3-1,0.4-1.6,0.4C-134.9,642.5-135.8,641.9-135.8,640.2z"/>
		<path class="st1" d="M-125.2,642.4v-1c-0.5,0.6-1.4,1.1-2.6,1.1c-1.5,0-2.8-0.9-2.8-2.5c0-1.8,1.4-2.6,3.2-2.6
			c1,0,1.6,0.1,2.2,0.3v-0.2c0-1.1-0.7-1.7-2-1.7c-0.9,0-1.5,0.2-2.3,0.5l-0.5-1.5c0.9-0.4,1.7-0.7,3-0.7c2.3,0,3.5,1.2,3.5,3.4v4.7
			H-125.2z M-125.1,639c-0.5-0.2-1.1-0.3-1.8-0.3c-1.1,0-1.8,0.5-1.8,1.3c0,0.8,0.7,1.2,1.5,1.2c1.2,0,2.1-0.7,2.1-1.7V639z"/>
		<path class="st1" d="M-120.8,636h-1v-1.5h1v-0.6c0-0.9,0.2-1.5,0.6-2c0.4-0.4,1-0.6,1.8-0.6c0.6,0,1.1,0.1,1.5,0.2v1.5
			c-0.4-0.1-0.7-0.2-1.1-0.2c-0.7,0-1.1,0.4-1.1,1.2v0.4h2.1v1.5h-2.1v6.4h-1.8V636z"/>
		<path class="st1" d="M-115.1,636h-1v-1.5h1v-0.6c0-0.9,0.2-1.5,0.6-2c0.4-0.4,1-0.6,1.8-0.6c0.6,0,1.1,0.1,1.5,0.2v1.5
			c-0.4-0.1-0.7-0.2-1.1-0.2c-0.7,0-1.1,0.4-1.1,1.2v0.4h2.1v1.5h-2.1v6.4h-1.8V636z"/>
		<path class="st1" d="M-105,636h-1v-1.5h1v-0.6c0-0.9,0.2-1.5,0.6-2c0.4-0.4,1-0.6,1.8-0.6c0.6,0,1.1,0.1,1.5,0.2v1.5
			c-0.4-0.1-0.7-0.2-1.1-0.2c-0.7,0-1.1,0.4-1.1,1.2v0.4h2.1v1.5h-2.1v6.4h-1.8V636z"/>
		<path class="st1" d="M-100.3,638.4c0-2.3,1.8-4.2,4.2-4.2c2.4,0,4.2,1.9,4.2,4.2c0,2.3-1.8,4.1-4.3,4.1
			C-98.5,642.5-100.3,640.7-100.3,638.4z M-93.7,638.4c0-1.4-1-2.6-2.4-2.6c-1.5,0-2.4,1.1-2.4,2.6c0,1.4,1,2.6,2.4,2.6
			C-94.6,641-93.7,639.8-93.7,638.4z"/>
		<path class="st1" d="M-90,634.4h1.8v1.8c0.5-1.2,1.4-2,2.8-1.9v1.9h-0.1c-1.6,0-2.7,1-2.7,3.1v3H-90V634.4z"/>
		<path class="st1" d="M-77.5,641.1v1.2h-1.8v-11h1.8v4.4c0.6-0.8,1.4-1.5,2.7-1.5c1.9,0,3.7,1.5,3.7,4.2c0,2.6-1.8,4.1-3.7,4.1
			C-76.1,642.5-76.9,641.9-77.5,641.1z M-72.9,638.4c0-1.5-1-2.5-2.3-2.5c-1.2,0-2.3,1-2.3,2.6c0,1.5,1.1,2.5,2.3,2.5
			C-73.9,640.9-72.9,640-72.9,638.4z"/>
		<path class="st1" d="M-69.3,639.5v-5.1h1.8v4.5c0,1.2,0.6,1.9,1.7,1.9c1.1,0,1.8-0.7,1.8-2v-4.5h1.8v7.9H-64v-1.2
			c-0.5,0.8-1.2,1.4-2.5,1.4C-68.2,642.5-69.3,641.3-69.3,639.5z"/>
		<path class="st1" d="M-60.5,641.3l0.8-1.2c0.9,0.6,1.8,1,2.6,1c0.8,0,1.2-0.3,1.2-0.9c0-0.6-0.8-0.8-1.6-1.1c0,0-0.1,0-0.1,0
			c-1.2-0.3-2.5-0.8-2.5-2.4c0-1.5,1.2-2.4,2.8-2.4c1,0,2.1,0.3,2.9,0.9l-0.7,1.3c-0.8-0.5-1.6-0.8-2.2-0.8c-0.7,0-1.1,0.3-1.1,0.8
			c0,0.5,0.8,0.8,1.6,1.1c0,0,0.1,0,0.2,0c1.2,0.4,2.5,0.9,2.5,2.3c0,1.7-1.3,2.5-2.9,2.5C-58.3,642.5-59.5,642.1-60.5,641.3z"/>
		<path class="st1" d="M-52.3,631.5h2v1.7h-2V631.5z M-52.2,634.4h1.8v7.9h-1.8V634.4z"/>
		<path class="st1" d="M-48,634.4h1.8v1.2c0.5-0.8,1.2-1.4,2.5-1.4c1.8,0,2.8,1.2,2.8,3.1v5.1h-1.8v-4.5c0-1.2-0.6-1.9-1.7-1.9
			c-1.1,0-1.8,0.7-1.8,2v4.5H-48V634.4z"/>
		<path class="st1" d="M-39.2,638.4c0-2.3,1.6-4.1,3.9-4.1c2.5,0,3.8,2,3.8,4.3c0,0.1,0,0.4,0,0.5h-5.8c0.2,1.3,1.1,2,2.3,2
			c0.9,0,1.5-0.3,2.2-0.9l1.1,0.9c-0.8,0.9-1.8,1.5-3.3,1.5C-37.4,642.5-39.2,640.9-39.2,638.4z M-33.3,637.8
			c-0.1-1.2-0.8-2.1-2-2.1c-1.1,0-1.9,0.9-2.1,2.1H-33.3z"/>
		<path class="st1" d="M-30.3,641.3l0.8-1.2c0.9,0.6,1.8,1,2.6,1c0.8,0,1.2-0.3,1.2-0.9c0-0.6-0.8-0.8-1.6-1.1c0,0-0.1,0-0.1,0
			c-1.2-0.3-2.5-0.8-2.5-2.4c0-1.5,1.2-2.4,2.8-2.4c1,0,2.1,0.3,2.9,0.9l-0.7,1.3c-0.8-0.5-1.6-0.8-2.2-0.8c-0.7,0-1.1,0.3-1.1,0.8
			c0,0.5,0.8,0.8,1.6,1.1c0,0,0.1,0,0.2,0c1.2,0.4,2.5,0.9,2.5,2.3c0,1.7-1.3,2.5-2.9,2.5C-28,642.5-29.3,642.1-30.3,641.3z"/>
		<path class="st1" d="M-22.9,641.3l0.8-1.2c0.9,0.6,1.8,1,2.6,1c0.8,0,1.2-0.3,1.2-0.9c0-0.6-0.8-0.8-1.6-1.1c0,0-0.1,0-0.1,0
			c-1.2-0.3-2.5-0.8-2.5-2.4c0-1.5,1.2-2.4,2.8-2.4c1,0,2.1,0.3,2.9,0.9l-0.7,1.3c-0.8-0.5-1.6-0.8-2.2-0.8c-0.7,0-1.1,0.3-1.1,0.8
			c0,0.5,0.8,0.8,1.6,1.1c0,0,0.1,0,0.2,0c1.2,0.4,2.5,0.9,2.5,2.3c0,1.7-1.3,2.5-2.9,2.5C-20.7,642.5-21.9,642.1-22.9,641.3z"/>
		<path class="st1" d="M-10.7,638.4c0-2.3,1.6-4.1,3.9-4.1c2.5,0,3.8,2,3.8,4.3c0,0.1,0,0.4,0,0.5h-5.8c0.2,1.3,1.1,2,2.3,2
			c0.9,0,1.5-0.3,2.2-0.9l1.1,0.9c-0.8,0.9-1.8,1.5-3.3,1.5C-8.9,642.5-10.7,640.9-10.7,638.4z M-4.8,637.8c-0.1-1.2-0.8-2.1-2-2.1
			c-1.1,0-1.9,0.9-2.1,2.1H-4.8z"/>
		<path class="st1" d="M-2.3,634.4h2l2.1,5.8l2.2-5.8h1.9l-3.3,8H1L-2.3,634.4z"/>
		<path class="st1" d="M6.5,638.4c0-2.3,1.6-4.1,3.9-4.1c2.5,0,3.8,2,3.8,4.3c0,0.1,0,0.4,0,0.5H8.4c0.2,1.3,1.1,2,2.3,2
			c0.9,0,1.5-0.3,2.2-0.9l1.1,0.9c-0.8,0.9-1.8,1.5-3.3,1.5C8.3,642.5,6.5,640.9,6.5,638.4z M12.4,637.8c-0.1-1.2-0.8-2.1-2-2.1
			c-1.1,0-1.9,0.9-2.1,2.1H12.4z"/>
		<path class="st1" d="M16.1,634.4h1.8v1.2c0.5-0.8,1.2-1.4,2.5-1.4c1.8,0,2.8,1.2,2.8,3.1v5.1h-1.8v-4.5c0-1.2-0.6-1.9-1.7-1.9
			c-1.1,0-1.8,0.7-1.8,2v4.5h-1.8V634.4z"/>
		<path class="st1" d="M25.8,640.2V636h-1v-1.6h1v-2.2h1.8v2.2h2.1v1.6h-2.1v3.9c0,0.7,0.4,1,1,1c0.4,0,0.8-0.1,1.1-0.3v1.5
			c-0.5,0.3-1,0.4-1.6,0.4C26.7,642.5,25.8,641.9,25.8,640.2z"/>
		<path class="st1" d="M30.9,641.3l0.8-1.2c0.9,0.6,1.8,1,2.6,1c0.8,0,1.2-0.3,1.2-0.9c0-0.6-0.8-0.8-1.6-1.1c0,0-0.1,0-0.1,0
			c-1.2-0.3-2.5-0.8-2.5-2.4c0-1.5,1.2-2.4,2.8-2.4c1,0,2.1,0.3,2.9,0.9l-0.7,1.3c-0.8-0.5-1.6-0.8-2.2-0.8c-0.7,0-1.1,0.3-1.1,0.8
			c0,0.5,0.8,0.8,1.6,1.1c0,0,0.1,0,0.2,0c1.2,0.4,2.5,0.9,2.5,2.3c0,1.7-1.3,2.5-2.9,2.5C33.2,642.5,31.9,642.1,30.9,641.3z"/>
		<path class="st1" d="M43.6,631.5h2v1.7h-2V631.5z M43.7,634.4h1.8v7.9h-1.8V634.4z"/>
		<path class="st1" d="M47.9,634.4h1.8v1.2c0.5-0.8,1.2-1.4,2.5-1.4c1.8,0,2.8,1.2,2.8,3.1v5.1h-1.8v-4.5c0-1.2-0.6-1.9-1.7-1.9
			c-1.1,0-1.8,0.7-1.8,2v4.5h-1.8V634.4z"/>
		<path class="st1" d="M62,631.8h2l3.2,5l3.2-5h2v10.5h-1.9v-7.6l-3.3,5h-0.1l-3.3-4.9v7.5H62V631.8z"/>
		<path class="st1" d="M74.4,638.4c0-2.3,1.8-4.2,4.2-4.2s4.2,1.9,4.2,4.2c0,2.3-1.8,4.1-4.3,4.1C76.2,642.5,74.4,640.7,74.4,638.4z
			 M81,638.4c0-1.4-1-2.6-2.4-2.6c-1.5,0-2.4,1.1-2.4,2.6c0,1.4,1,2.6,2.4,2.6C80.1,641,81,639.8,81,638.4z"/>
		<path class="st1" d="M84,641.3l0.8-1.2c0.9,0.6,1.8,1,2.6,1c0.8,0,1.2-0.3,1.2-0.9c0-0.6-0.8-0.8-1.6-1.1c0,0-0.1,0-0.1,0
			c-1.2-0.3-2.5-0.8-2.5-2.4c0-1.5,1.2-2.4,2.8-2.4c1,0,2.1,0.3,2.9,0.9l-0.7,1.3c-0.8-0.5-1.6-0.8-2.2-0.8c-0.7,0-1.1,0.3-1.1,0.8
			c0,0.5,0.8,0.8,1.6,1.1c0,0,0.1,0,0.2,0c1.2,0.4,2.5,0.9,2.5,2.3c0,1.7-1.3,2.5-2.9,2.5C86.3,642.5,85,642.1,84,641.3z"/>
		<path class="st1" d="M91.8,638.4c0-2.3,1.7-4.2,4.1-4.2c1.5,0,2.4,0.6,3.2,1.4l-1.1,1.2c-0.6-0.6-1.1-1-2.1-1
			c-1.3,0-2.3,1.1-2.3,2.6s1,2.6,2.4,2.6c0.9,0,1.5-0.4,2.1-1l1.1,1.1c-0.8,0.9-1.7,1.5-3.3,1.5C93.5,642.5,91.8,640.7,91.8,638.4z"
			/>
		<path class="st1" d="M100.1,638.4c0-2.3,1.8-4.2,4.2-4.2c2.4,0,4.2,1.9,4.2,4.2c0,2.3-1.8,4.1-4.3,4.1
			C101.9,642.5,100.1,640.7,100.1,638.4z M106.8,638.4c0-1.4-1-2.6-2.4-2.6c-1.5,0-2.4,1.1-2.4,2.6c0,1.4,1,2.6,2.4,2.6
			C105.9,641,106.8,639.8,106.8,638.4z"/>
		<path class="st1" d="M109.4,634.4h1.9l1.6,5.4l1.8-5.5h1.5l1.8,5.5l1.6-5.4h1.8l-2.6,8h-1.6l-1.8-5.4l-1.8,5.4H112L109.4,634.4z"
			/>
	</g>
	<g>
		<path class="st1" d="M-178.4,616.3c0,0,20.9-0.1,52.2-0.3c31.3-0.1,73.1-0.1,114.8-0.2c41.7,0.1,83.5,0.2,114.8,0.2
			c31.3,0.2,52.2,0.3,52.2,0.3s-20.9,0.1-52.2,0.3c-31.3,0.1-73.1,0.1-114.8,0.2c-41.7-0.1-83.5-0.2-114.8-0.2
			C-157.6,616.4-178.4,616.3-178.4,616.3z"/>
	</g>
</g>
</svg>
